# xmcd
#
# Track frame offsets:
#	150
#	17965
#	34232
#	55977
#	71422
#	99597
#	112890
#	131255
#	147677
#	170517
#	187135
#	204062
#	223407
#	243367
#
# Disc length: 3467 seconds
#
# Revision: 1
# Processed by: cddbd v1.4PL0 Copyright (c) Steve Scherf et al.
# Submitted via: CDmax 1.9
#
DISCID=d20d890e
DTITLE=Harry Kistenmakers Party-Company - Die Sommer Party Vol. 3
DYEAR=1900
DGENRE=Country
TTITLE0=Von Milano bis Napoli (Potp.)
TTITLE1=Von Hamburg in die Welt (Potp.)
TTITLE2=Super-Evergreen-Reise (Potp.)
TTITLE3=Urlaub, Ferien, Holiday (Potp.)
TTITLE4=Holiday Hits (Potp.)
TTITLE5=Hawaiian Paradiese-Party (Potp.)
TTITLE6=Von porto bis Rio (Potp.)
TTITLE7=Italiens Bella Musica (Potp.)
TTITLE8=Windjammer-Reise (Potp.)
TTITLE9=Fiesta in Mexico (Potp.)
TTITLE10=Folklore aus old Germany (Potp.)
TTITLE11=Träume am Meer (Potp.)
TTITLE12=Geschichten aus dem Böhmerwald (Potp.)
TTITLE13=Souvenier von Mayschoss
EXTD=
EXTT0=
EXTT1=
EXTT2=
EXTT3=
EXTT4=
EXTT5=
EXTT6=
EXTT7=
EXTT8=
EXTT9=
EXTT10=
EXTT11=
EXTT12=
EXTT13=
PLAYORDER=
